<svg width="40" height="40" viewBox="0 0 40 40" fill="none" xmlns="http://www.w3.org/2000/svg">
<ellipse cx="19.98" cy="20" rx="19.9802" ry="20" fill="#74716D"/>
<path d="M12.0972 28.9447L9.95616 18.1014C9.83411 17.4833 10.3072 16.9077 10.9372 16.9077H30.6449C31.2817 16.9077 31.7563 17.495 31.6226 18.1176L29.2954 28.9608C29.1965 29.4217 28.7891 29.751 28.3177 29.751H13.0782C12.6006 29.751 12.1897 29.4132 12.0972 28.9447Z" stroke="white"/>
<path d="M15.5547 19.2431C15.5547 3.67549 26.0524 3.6755 26.0524 19.2431" stroke="white"/>
<path d="M21.6749 27.1188C21.6749 31.2375 18.3393 34.5764 14.2247 34.5764C10.11 34.5764 6.77441 31.2375 6.77441 27.1188C6.77441 23 10.11 19.6611 14.2247 19.6611C18.3393 19.6611 21.6749 23 21.6749 27.1188Z" fill="#A98F70"/>
<path d="M15.1527 22.7902V31.1344H14.1433V23.8495H14.0944L12.0593 25.2022V24.1755L14.1433 22.7902H15.1527Z" fill="white"/>
</svg>
